<svg width="193" height="192" viewBox="0 0 193 192" fill="none" xmlns="http://www.w3.org/2000/svg">
<path d="M15.9752 136.666C16.3976 138.086 17.2808 139.699 18.74 139.699C20.1224 139.699 21.0824 138.317 21.4664 136.973C22.388 133.939 21.8888 130.637 20.66 127.718C19.4312 124.8 17.6264 122.189 15.7832 119.616C15.3224 118.963 14.708 118.272 13.94 118.349C13.2488 118.426 12.7496 119.155 12.7112 119.885C12.7112 120.614 12.9032 121.306 13.2488 121.958C14.324 124.416 15.1688 126.106 15.1304 128.755C15.092 131.405 15.092 134.131 15.9752 136.666Z" fill="white"/>
<path d="M147.38 30.0288C147.111 30.0288 146.804 29.9904 146.535 29.9136C143.079 28.9536 139.623 27.84 136.244 26.6112C131.559 24.8832 126.951 22.8864 122.497 20.6592C118.849 18.816 115.854 18.0096 112.129 16.9728L110.977 16.6656C100.455 13.7472 90.164 12.3648 80.2952 12.5568H80.2184C78.7976 12.5952 77.3384 12.5952 76.1096 11.7504C75.2648 11.2128 74.804 10.2144 74.9192 9.216C75.2264 7.3728 77.5688 6.9504 78.2984 6.7968C88.82 4.7232 100.532 5.4912 113.089 9.1008C123.764 12.1728 133.71 16.7808 145.345 22.7712C146.612 23.3856 147.802 24.1152 148.954 24.9216C150.106 25.6896 150.49 27.1872 149.876 28.4544C149.454 29.3376 148.455 29.9904 147.38 30.0288ZM146.689 29.376C147.764 29.6832 148.954 29.1456 149.415 28.1088C149.914 27.1104 149.607 25.92 148.686 25.3056C147.534 24.5376 146.343 23.8464 145.114 23.232C133.479 17.28 123.572 12.672 112.935 9.6384C100.494 6.0672 88.8968 5.2992 78.4136 7.3344C76.5704 7.68 75.6488 8.3328 75.4568 9.2928C75.3416 10.0992 75.7256 10.8672 76.4168 11.2896C77.492 12.0576 78.8744 12.0192 80.18 11.9808H80.2568C90.164 11.7888 100.532 13.1712 111.092 16.128L112.244 16.4352C116.046 17.472 119.041 18.3168 122.727 20.16C127.182 22.3872 131.751 24.384 136.436 26.0736C139.815 27.3024 143.271 28.416 146.689 29.376Z" fill="white"/>
<path d="M56.18 19.3152C54.068 19.3152 53.5304 18.2784 53.3768 17.6256C53.0312 16.0512 54.452 13.8624 56.372 12.9792C60.404 11.1744 64.82 10.3296 69.2744 10.4832C70.1192 10.5216 71.1176 10.6368 71.6936 11.328C72.5384 12.288 72.1544 13.7856 71.3096 14.6304C70.4648 15.4752 69.236 15.744 68.276 16.0128L65.8568 16.6272C64.2824 17.0112 62.6312 17.4336 61.0568 17.856C60.4808 18.0096 59.9432 18.2016 59.4056 18.432C58.3304 18.8544 57.2168 19.2768 56.2184 19.3152H56.18ZM68.1608 11.0592C64.2056 11.0592 60.2504 11.904 56.6408 13.5168C54.9896 14.2464 53.684 16.2048 53.9528 17.5104C54.1832 18.5472 55.2968 18.7392 56.2184 18.7392C57.14 18.7392 58.1768 18.3168 59.2136 17.8944C59.7512 17.664 60.3272 17.472 60.9032 17.3184C62.516 16.896 64.1288 16.4736 65.7032 16.0896C66.5096 15.8976 67.316 15.7056 68.1224 15.4752C69.0824 15.2448 70.1576 14.9376 70.9256 14.2464C71.5784 13.632 71.8856 12.4416 71.3096 11.7504C70.8488 11.2512 70.0808 11.136 69.2744 11.0976C68.8904 11.0592 68.5064 11.0592 68.1608 11.0592Z" fill="white"/>
<path d="M55.3352 172.877C52.3016 172.877 49.6904 170.803 48.9608 167.885C44.9672 151.718 41.1656 135.091 37.5944 118.502C34.0616 102.029 30.6824 85.1328 27.6104 68.2752C27.188 65.9712 26.612 63.5904 26.036 61.056C24.6536 55.1424 23.1944 48.9984 23.4248 43.4304C23.6552 37.5168 28.1864 35.8656 32.4488 34.7904C54.0296 29.2992 75.8408 25.4208 96.884 21.6576C105.447 20.1216 114.318 18.5472 122.881 16.896C125.454 16.3968 127.988 18.1632 128.641 20.8896L157.095 139.046C157.594 141.158 158.055 143.539 156.903 145.459C156.02 146.88 154.522 147.61 152.948 148.262C122.458 161.126 89.8568 169.382 56.0648 172.838C55.796 172.877 55.5656 172.877 55.3352 172.877ZM49.5368 167.731C50.228 170.65 52.9928 172.608 55.988 172.262C89.2808 168.96 121.844 160.666 152.679 147.763C154.177 147.149 155.598 146.458 156.366 145.19C157.402 143.462 156.98 141.197 156.519 139.238L128.065 21.0432C127.489 18.624 125.262 17.0496 122.996 17.472C114.433 19.1232 105.562 20.6976 96.9992 22.1952C75.9176 25.9584 54.1448 29.8368 32.6024 35.328C27.4568 36.6336 24.2312 38.4384 24.0392 43.4304C23.8088 48.8832 25.268 54.9888 26.6504 60.9024C27.2648 63.4368 27.8024 65.856 28.2248 68.16C31.3352 85.0176 34.676 101.914 38.2088 118.387C41.7032 134.938 45.5432 151.565 49.5368 167.731Z" fill="white"/>
<path d="M35.9816 59.3664C36.1736 60.3648 36.4808 61.4784 37.364 61.9392C38.324 62.4384 39.4376 61.9392 40.3976 61.4784C49.268 57.1392 59.0216 55.3728 68.5064 53.6448L95.4248 48.768C96.9992 48.4608 98.804 48.0768 99.6872 46.656C100.57 45.2352 100.302 43.4304 100.033 41.7792L98.6504 33.9456C98.5352 33.3696 98.42 32.7168 97.9592 32.3712C97.4984 32.0256 96.8456 32.064 96.2696 32.1792L67.5464 36.9408C61.4408 37.9392 55.2968 38.976 49.2296 40.5888C46.1576 41.3952 43.1624 42.3552 40.2056 43.5072C38.0936 44.352 35.06 44.8896 34.7912 47.5392C34.3688 51.3408 35.2136 55.68 35.9816 59.3664Z" fill="white"/>
<path d="M40.3976 72.5376C39.7448 72.96 39.0152 73.6128 39.092 74.4192C39.2456 75.072 39.7832 75.5712 40.436 75.6096C41.0888 75.648 41.7416 75.5328 42.3176 75.264C54.26 71.3472 66.5096 68.352 78.9512 66.3936C82.1768 65.8944 85.5176 65.3952 88.1288 63.36C88.628 62.976 89.1656 62.4 89.1272 61.7088C89.0504 61.056 88.5512 60.5184 87.8984 60.4032C87.284 60.3264 86.6312 60.3648 86.0552 60.5568L67.2008 65.1264C61.0184 66.624 54.644 68.736 48.308 69.6576C45.4664 70.0032 42.7784 70.9632 40.3976 72.5376Z" fill="white"/>
<path d="M47.4248 100.186C46.772 100.608 46.0424 101.261 46.1576 102.067C46.3112 102.72 46.8488 103.181 47.5016 103.219C48.1544 103.258 48.7688 103.142 49.3448 102.874C61.1336 98.8416 73.2296 95.7312 85.5176 93.6192C88.7048 93.0816 92.0072 92.544 94.58 90.5088C95.0792 90.0864 95.6168 89.5488 95.5784 88.896C95.5016 88.2432 95.0024 87.744 94.388 87.6288C93.7736 87.552 93.1592 87.6288 92.5448 87.8208L73.8824 92.544C67.7768 94.1184 61.4792 96.3072 55.22 97.2672C52.4168 97.6512 49.7672 98.6496 47.4248 100.186Z" fill="white"/>
<path d="M51.6872 117.197C51.0344 117.619 50.3048 118.272 50.42 119.078C50.5352 119.731 51.1112 120.192 51.7256 120.23C52.3784 120.23 52.9928 120.115 53.5688 119.885C65.2808 115.776 77.2616 112.589 89.4728 110.4C92.6216 109.824 95.924 109.248 98.4584 107.213C98.9576 106.79 99.4568 106.253 99.4184 105.6C99.3416 104.986 98.8424 104.448 98.228 104.371C97.6136 104.294 96.9992 104.371 96.4232 104.563L77.9144 109.44C71.8472 111.053 65.6264 113.28 59.4056 114.278C56.6408 114.624 54.0296 115.661 51.6872 117.197Z" fill="#D8DB2F"/>
<path d="M49.9592 109.171C49.3832 109.594 49.0376 110.246 48.9992 110.938C48.9608 111.475 49.3064 111.974 49.8056 112.166C50.228 112.243 50.6888 112.128 51.0344 111.936C58.9064 108.672 67.124 106.33 75.5336 104.947C77.684 104.602 79.9112 104.256 81.7544 102.374C82.2152 101.952 82.484 101.414 82.5224 100.8C82.5608 100.262 82.292 99.7248 81.7928 99.456C81.3704 99.3408 80.948 99.3792 80.564 99.5328L67.892 103.142C63.7448 104.333 59.4824 106.138 55.2584 106.714C53.3 107.021 51.4568 107.866 49.9592 109.171Z" fill="#D8DB2F"/>
<path d="M54.836 153.331C54.4904 153.37 54.1832 153.101 54.1448 152.755C54.068 152.371 54.3368 151.987 54.7208 151.91C59.636 150.835 64.5128 149.53 69.2744 147.955C69.62 147.84 70.004 148.032 70.1192 148.378V148.416C70.2344 148.8 70.004 149.184 69.6584 149.299C64.82 150.912 59.9432 152.256 54.9512 153.293C54.9128 153.331 54.8744 153.331 54.836 153.331Z" fill="white"/>
<path d="M55.9112 158.554C55.604 158.592 55.3352 158.4 55.22 158.093C55.1048 157.709 55.2968 157.325 55.6424 157.171C59.4824 155.674 63.476 154.483 67.508 153.6C67.8536 153.523 68.1992 153.754 68.276 154.099V154.138C68.3144 154.522 68.084 154.867 67.7 154.982C63.7448 155.827 59.828 157.018 56.0648 158.477C56.0648 158.515 55.988 158.554 55.9112 158.554Z" fill="white"/>
<path d="M80.372 156.211C78.7592 156.288 77.1848 155.635 76.1096 154.406C75.8792 154.099 75.8792 153.677 76.1864 153.408C76.4552 153.139 76.8776 153.139 77.108 153.37C77.108 153.37 77.108 153.37 77.1464 153.408C77.9912 154.406 79.2968 154.906 80.6024 154.752C81.908 154.56 82.9832 153.677 83.4056 152.448C83.7896 151.258 83.252 149.837 82.2152 149.376C81.524 149.069 80.6408 149.107 79.7576 149.184C78.6056 149.261 77.4152 149.338 76.3784 148.685C75.0344 147.84 74.4584 145.92 75.0344 144.23C75.6488 142.694 76.9928 141.542 78.6056 141.235C80.1032 140.966 81.6008 141.312 82.868 142.195C83.1752 142.426 83.252 142.848 83.0216 143.155C82.8296 143.462 82.4072 143.578 82.1 143.386C81.14 142.694 79.988 142.426 78.836 142.618C77.7224 142.848 76.7624 143.616 76.34 144.653C75.956 145.69 76.3016 146.918 77.108 147.418C77.7992 147.84 78.7208 147.802 79.7192 147.725C80.7176 147.648 81.8312 147.571 82.7912 148.032C84.404 148.762 85.2488 150.912 84.6728 152.755C84.0584 154.522 82.5224 155.827 80.6792 156.096C80.564 156.211 80.4488 156.211 80.372 156.211Z" fill="#D8DB2F"/>
<path d="M82.4072 157.632C82.1 157.67 81.7928 157.44 81.716 157.133L78.0296 139.853C77.9528 139.469 78.1832 139.085 78.5672 138.97C78.9128 138.893 79.2584 139.085 79.3736 139.43V139.469L83.06 156.749C83.1368 157.133 82.9064 157.517 82.5224 157.594L82.4072 157.632Z" fill="#D8DB2F"/>
<path d="M93.5048 152.218C91.892 152.294 90.356 151.642 89.2808 150.413C89.0504 150.106 89.0504 149.683 89.3576 149.414C89.588 149.146 90.0104 149.146 90.2792 149.376L90.3176 149.414C91.1624 150.413 92.4296 150.912 93.6968 150.758C94.964 150.566 96.0392 149.683 96.4616 148.454C96.8456 147.264 96.308 145.882 95.3096 145.382C94.6184 145.075 93.7736 145.114 92.8904 145.19C91.7384 145.267 90.5864 145.344 89.5496 144.691C88.2056 143.885 87.668 141.926 88.244 140.275C88.82 138.739 90.164 137.626 91.7768 137.318C93.236 137.05 94.772 137.395 95.9624 138.278C96.2696 138.509 96.3464 138.931 96.116 139.238C95.924 139.546 95.5016 139.661 95.1944 139.469C94.2728 138.778 93.1208 138.509 91.9688 138.701C90.8552 138.931 89.9336 139.699 89.5112 140.736C89.1272 141.773 89.4728 143.002 90.2792 143.501C90.9704 143.923 91.892 143.885 92.852 143.808C93.812 143.731 94.9256 143.693 95.8856 144.154C97.46 144.883 98.3048 146.995 97.7288 148.877C97.1528 150.643 95.6552 151.949 93.812 152.218H93.5048Z" fill="#D8DB2F"/>
<path d="M95.54 153.638C95.2328 153.677 94.9256 153.446 94.8872 153.139L91.2776 135.936C91.2008 135.552 91.4312 135.168 91.8152 135.091C92.1608 135.014 92.5064 135.206 92.6216 135.552V135.59L96.2312 152.794C96.308 153.178 96.0776 153.562 95.732 153.638C95.6168 153.638 95.5784 153.638 95.54 153.638Z" fill="#D8DB2F"/>
<path d="M105.294 149.376C103.681 149.453 102.145 148.8 101.108 147.61C100.878 147.302 100.878 146.88 101.185 146.611C101.415 146.342 101.838 146.342 102.106 146.573L102.145 146.611C102.951 147.571 104.218 148.109 105.486 147.955C106.753 147.763 107.828 146.88 108.212 145.69C108.596 144.499 108.058 143.117 107.098 142.656C106.407 142.349 105.601 142.387 104.679 142.464C103.566 142.541 102.414 142.618 101.377 141.965C100.071 141.158 99.4952 139.2 100.11 137.549C100.686 136.013 102.03 134.899 103.604 134.592C105.063 134.362 106.561 134.707 107.751 135.552C108.058 135.782 108.135 136.205 107.905 136.512C107.713 136.819 107.329 136.934 107.022 136.742C107.022 136.742 107.022 136.742 106.983 136.742C106.062 136.09 104.91 135.782 103.796 135.974C102.682 136.205 101.761 136.973 101.338 138.01C100.954 139.008 101.3 140.275 102.106 140.736C102.798 141.158 103.681 141.12 104.641 141.043C105.601 140.966 106.676 140.928 107.636 141.389C109.21 142.118 110.017 144.23 109.441 146.074C108.865 147.84 107.367 149.107 105.524 149.414H105.294V149.376Z" fill="#D8DB2F"/>
<path d="M107.29 150.797C106.983 150.835 106.676 150.605 106.638 150.298L103.143 133.171C103.066 132.787 103.297 132.442 103.642 132.326C103.988 132.25 104.334 132.442 104.41 132.787V132.826L107.905 149.952C107.982 150.336 107.751 150.682 107.406 150.797C107.367 150.797 107.329 150.797 107.29 150.797Z" fill="#D8DB2F"/>
<path d="M119.463 92.8512C119.156 92.8512 118.887 92.6592 118.81 92.3904C118.695 92.0064 118.887 91.6224 119.233 91.4688C122.382 90.3168 125.569 89.3952 128.833 88.6656C129.178 88.5888 129.524 88.8192 129.601 89.1648V89.2032C129.678 89.5872 129.447 89.9328 129.063 90.048C125.876 90.7776 122.727 91.6992 119.617 92.8128C119.617 92.8128 119.54 92.8512 119.463 92.8512Z" fill="white"/>
<path d="M120.577 97.0752C120.308 97.0752 120.078 96.9216 119.962 96.6912C119.809 96.3456 119.924 95.9232 120.27 95.7312C121.575 95.0016 123.034 94.5408 124.532 94.3488C124.878 94.3104 125.185 94.5792 125.223 94.9248V94.9632C125.262 95.3472 124.993 95.6928 124.609 95.7312C123.303 95.8848 121.998 96.2688 120.846 96.9216C120.769 97.0368 120.692 97.0368 120.577 97.0752Z" fill="white"/>
<path d="M112.743 63.6288C112.436 63.6288 112.206 63.4368 112.09 63.168C111.975 62.8224 112.129 62.4 112.474 62.2464C116.238 60.672 120.193 59.4816 124.225 58.752C124.57 58.6752 124.916 58.944 124.993 59.2896V59.328C125.07 59.712 124.801 60.0576 124.455 60.1344C120.5 60.864 116.66 62.0544 112.974 63.5904C112.897 63.6288 112.82 63.6288 112.743 63.6288Z" fill="white"/>
<path d="M115.047 67.4304C114.74 67.4304 114.471 67.2384 114.394 66.9312C114.279 66.5472 114.471 66.1632 114.855 66.0096C116.545 65.4336 118.311 65.1264 120.078 65.1264C120.462 65.1264 120.73 65.4336 120.73 65.8176C120.73 66.2016 120.462 66.5088 120.078 66.5472C118.426 66.5472 116.814 66.816 115.278 67.3536C115.162 67.392 115.124 67.4304 115.047 67.4304Z" fill="white"/>
<path d="M48.5384 82.4448C57.2936 79.7952 66.0872 77.6832 74.7272 75.1104C75.6488 74.8416 76.6088 74.5344 77.3 73.8048L77.3384 73.7664C78.26 72.768 77.3 71.1936 76.0328 71.5392L60.8648 75.9552C56.1416 77.3376 50.7272 79.9104 45.812 79.3728C44.6984 79.2576 43.892 79.7568 42.7784 80.1792C39.2456 81.5232 43.7 83.9424 48.5384 82.4448Z" fill="white"/>
<path d="M134.977 94.1568C132.788 93.6576 130.484 93.1968 128.41 93.9264C125.262 95.0016 123.918 98.3808 122.919 101.414L107.29 149.069C106.868 150.374 106.446 151.757 106.83 153.101C107.521 155.29 110.055 156.442 112.321 157.286L146.574 170.458C149.377 171.533 152.526 172.608 155.252 171.571C158.286 170.419 159.476 167.117 160.359 164.16L174.836 115.776C175.412 113.818 176.026 111.706 175.45 109.709C173.876 104.026 163.124 102.221 158.132 100.57C150.529 98.0736 142.81 95.9616 134.977 94.1568Z" fill="#D8DB2F"/>
<path d="M163.278 124.032C162.356 123.994 161.473 123.802 160.59 123.533L127.911 113.933C127.066 113.702 125.914 113.357 125.262 112.474C124.378 111.36 124.609 109.862 124.878 108.557C125.415 106.061 126.068 102.912 128.103 100.762C129.831 98.9184 132.366 98.304 134.938 99.1104C137.665 99.9552 140.43 100.57 143.348 101.184L143.77 101.261C150.721 102.758 157.594 104.717 164.314 107.098C166.081 107.712 167.77 108.403 168.846 109.786C170.727 112.243 169.844 115.622 168.692 118.579C167.77 120.998 166.503 123.571 163.969 123.994C163.738 124.032 163.508 124.032 163.278 124.032ZM128.564 101.146C126.644 103.181 125.991 106.214 125.492 108.672C125.262 109.862 125.031 111.206 125.761 112.128C126.26 112.781 127.143 113.088 128.142 113.357L160.82 122.957C161.78 123.264 162.932 123.571 163.969 123.379C166.196 122.995 167.386 120.614 168.231 118.349C169.306 115.507 170.151 112.32 168.462 110.093C167.502 108.826 165.889 108.173 164.199 107.597C157.518 105.216 150.682 103.296 143.732 101.798L143.31 101.722C140.391 101.107 137.626 100.493 134.862 99.648C132.442 98.9184 130.138 99.456 128.564 101.146Z" fill="#133041"/>
<path d="M148.494 163.2C147.226 163.123 145.998 162.893 144.807 162.432L119.886 154.33C117.697 153.638 115.508 152.794 114.51 150.95C113.511 149.107 114.087 146.957 114.817 144.96L123.303 120.883C123.879 119.27 124.724 118.195 125.838 117.658C127.911 116.698 130.484 117.619 133.249 118.579C134.132 118.886 135.015 119.194 135.898 119.462L156.442 125.376C158.554 125.99 160.513 126.643 161.665 128.256C163.162 130.33 162.471 132.941 161.703 135.206L154.407 157.171C153.562 159.744 152.295 162.47 149.607 163.085C149.262 163.162 148.878 163.2 148.494 163.2ZM123.841 121.037L115.316 145.114C114.663 146.995 114.087 148.954 114.97 150.643C115.854 152.333 117.966 153.101 120.039 153.754L144.961 161.856C146.305 162.278 147.994 162.854 149.492 162.509C151.911 161.933 153.025 159.514 153.87 156.941L161.166 134.976C161.895 132.826 162.51 130.368 161.204 128.525C160.167 127.104 158.286 126.451 156.289 125.875L135.745 119.962C134.862 119.693 133.94 119.386 133.057 119.078C130.407 118.118 127.911 117.235 126.068 118.118C125.07 118.618 124.34 119.578 123.841 121.037Z" fill="#133041"/>
<path d="M151.796 134.784C151.758 134.784 151.758 134.784 151.719 134.784C143.079 130.675 134.017 127.603 124.647 125.568C124.532 125.53 124.455 125.453 124.494 125.338C124.532 125.222 124.609 125.146 124.724 125.184C134.094 127.219 143.194 130.291 151.873 134.4C151.95 134.438 152.026 134.554 151.95 134.669C151.95 134.707 151.873 134.784 151.796 134.784Z" fill="#133041"/>
<path d="M146.42 143.808C146.382 143.808 146.382 143.808 146.343 143.808C138.433 140.698 130.369 138.086 122.151 135.936C122.036 135.898 121.998 135.821 121.998 135.706C121.998 135.59 122.113 135.552 122.228 135.552C130.446 137.702 138.548 140.314 146.42 143.424C146.535 143.462 146.574 143.578 146.535 143.654C146.574 143.77 146.497 143.808 146.42 143.808Z" fill="#133041"/>
<path d="M143.924 152.794H143.886L120.039 145.882C119.924 145.843 119.886 145.728 119.924 145.651C119.962 145.536 120.078 145.498 120.154 145.536L144.001 152.448C144.116 152.486 144.154 152.602 144.116 152.678C144.078 152.717 144.001 152.794 143.924 152.794Z" fill="#133041"/>
<path d="M126.913 153.216H126.874C126.759 153.178 126.721 153.101 126.721 152.986C128.718 143.155 131.406 133.44 134.746 123.955C134.785 123.84 134.9 123.802 134.977 123.84C135.092 123.878 135.13 123.994 135.092 124.07C131.79 133.555 129.102 143.232 127.105 153.062C127.066 153.139 126.99 153.216 126.913 153.216Z" fill="#133041"/>
<path d="M135.706 156.365H135.668C135.553 156.326 135.514 156.211 135.553 156.134L144.5 126.874C144.538 126.758 144.654 126.72 144.73 126.72C144.807 126.72 144.884 126.874 144.884 126.95L135.898 156.211C135.898 156.288 135.822 156.365 135.706 156.365Z" fill="#133041"/>
<path d="M145.076 158.976H145.038C144.922 158.938 144.884 158.822 144.922 158.746L153.831 129.677C153.87 129.562 153.985 129.523 154.062 129.562C154.177 129.6 154.215 129.677 154.177 129.792L145.268 158.822C145.23 158.899 145.191 158.976 145.076 158.976Z" fill="#133041"/>
<path d="M156.788 138.662C156.75 138.662 156.75 138.662 156.711 138.662L152.18 137.011C152.065 136.973 152.026 136.858 152.065 136.781C152.103 136.666 152.218 136.627 152.295 136.666L156.826 138.317C156.942 138.317 157.018 138.432 156.98 138.547C156.98 138.624 156.865 138.701 156.788 138.662Z" fill="#133041"/>
<path d="M129.87 112.243H129.831C128.756 111.974 127.873 111.206 127.527 110.131C127.258 109.171 127.22 108.134 127.489 107.174C128.103 104.525 129.562 102.144 131.636 100.378C131.713 100.301 131.828 100.339 131.905 100.416C131.982 100.493 131.943 100.608 131.866 100.685C129.831 102.374 128.41 104.678 127.834 107.251C127.566 108.134 127.566 109.094 127.834 110.016C128.142 110.938 128.871 111.629 129.831 111.859C129.946 111.859 129.985 111.974 129.985 112.09C130.023 112.166 129.985 112.243 129.87 112.243Z" fill="#133041"/>
<path d="M8.7176 123.878C7.8728 128.179 9.716 132.941 13.4024 135.322C17.3192 137.856 22.9256 137.28 26.228 134.016C29.5304 130.752 30.2216 125.146 27.764 121.19C24.5768 116.006 16.0136 114.47 11.4824 118.771C10.0232 120.154 9.0632 121.92 8.7176 123.878Z" fill="white"/>
<path d="M17.972 137.856C15.9752 137.856 13.9784 137.318 12.2888 136.243C8.56399 133.862 6.60559 129.024 7.48879 124.531C7.87279 122.534 8.87119 120.691 10.3304 119.27C12.4424 117.274 15.5528 116.39 18.8552 116.813C22.3496 117.274 25.4216 119.117 27.0728 121.766C29.6072 125.798 28.8776 131.597 25.4984 134.938C23.5016 136.819 20.7752 137.894 17.972 137.856ZM17.2808 117.235C14.8616 117.158 12.5576 118.042 10.7528 119.654C9.37039 120.998 8.44879 122.726 8.10319 124.608C7.25839 128.909 9.13999 133.478 12.6344 135.744C16.436 138.202 21.9272 137.626 25.1144 134.477C28.3016 131.328 28.9928 125.837 26.612 121.997C25.076 119.501 22.1576 117.734 18.8168 117.312C18.2792 117.274 17.78 117.235 17.2808 117.235Z" fill="white"/>
<path d="M18.0104 136.858C16.1672 136.858 14.4008 136.358 12.8264 135.398C9.44719 133.21 7.64239 128.794 8.44879 124.685C8.79439 122.842 9.71599 121.19 11.0216 119.885C12.9416 118.042 15.7832 117.235 18.8168 117.619C22.004 118.042 24.8072 119.731 26.3048 122.15C28.6088 125.837 27.956 131.136 24.8456 134.17C23.0408 135.898 20.5832 136.858 18.0104 136.858ZM9.02479 124.762C8.25679 128.64 9.94639 132.826 13.1336 134.899C16.5896 137.126 21.5432 136.627 24.4616 133.747C27.38 130.867 27.9944 125.914 25.8056 122.419C24.3848 120.154 21.7352 118.579 18.7016 118.157C15.86 117.773 13.2104 118.541 11.4056 120.269C10.2152 121.498 9.37039 123.072 9.02479 124.762Z" fill="white"/>
<path d="M20.2376 131.942C18.7784 132.557 17.1656 132.365 16.1288 131.443C15.86 131.136 15.8984 130.637 16.2056 130.368C16.4744 130.138 16.8584 130.099 17.1656 130.33C17.8184 130.944 18.932 130.867 19.7 130.522C20.276 130.291 20.7752 129.869 21.044 129.331C21.2744 128.87 21.1976 128.294 20.852 127.91C20.3528 127.411 19.3928 127.565 18.8552 127.68C18.6632 127.718 18.4328 127.795 18.2408 127.834C17.4344 128.102 16.5896 128.218 15.7448 128.141C13.8632 127.834 12.5576 126.067 12.8648 124.147C13.172 122.266 14.9384 120.96 16.8584 121.267C17.0504 121.306 17.204 121.344 17.3576 121.382C17.7416 121.574 17.8952 122.035 17.7416 122.419C17.588 122.726 17.2424 122.918 16.8968 122.842C15.86 122.573 14.7848 123.149 14.516 124.186C14.2472 125.222 14.8232 126.298 15.86 126.566C15.8984 126.566 15.9368 126.605 16.0136 126.605C16.6664 126.643 17.2808 126.566 17.8952 126.336C18.1256 126.259 18.356 126.221 18.5864 126.144C20.0456 125.798 21.236 126.029 22.004 126.797C22.772 127.642 22.964 128.87 22.5032 129.907C22.0808 130.829 21.2744 131.52 20.3528 131.904L20.2376 131.942Z" fill="#133041"/>
<path d="M22.5032 133.133C22.196 133.248 21.8504 133.171 21.62 132.902C18.5864 129.293 15.8216 125.453 13.364 121.421C13.0952 121.075 13.1336 120.614 13.4792 120.346C13.8248 120.077 14.2856 120.115 14.5544 120.461C14.5928 120.499 14.6312 120.576 14.6696 120.614C17.0888 124.57 19.8152 128.371 22.772 131.942C23.0408 132.25 23.0024 132.749 22.6952 133.018C22.6184 133.056 22.5416 133.094 22.5032 133.133Z" fill="#133041"/>
<path d="M175.642 83.8656C174.529 83.8272 173.415 83.5968 172.34 83.2128C168.769 82.0224 165.198 80.6016 161.78 79.1808C159.207 78.144 156.558 77.0688 153.87 76.1088C149.146 74.3808 142.004 72.1536 134.67 72.4224C133.71 72.4608 132.289 72.4992 131.559 71.5008C131.06 70.848 131.098 69.9648 131.175 69.1584C131.674 63.3216 132.404 57.4464 133.326 51.6864C133.633 49.8048 134.055 47.8464 135.476 46.6176C136.666 45.6192 138.318 45.3888 139.662 45.2736C147.418 44.736 155.022 47.6544 161.511 50.4192L163.585 51.3024C164.852 51.84 166.158 52.416 167.425 52.9152C170.842 54.4128 174.414 55.6032 178.023 56.4864C179.598 56.8704 181.21 57.1008 182.862 57.1392C184.782 57.1776 186.126 58.0224 186.548 59.3664C186.97 60.7104 186.548 61.9776 186.01 63.4368L180.519 79.104C179.905 80.832 179.252 82.4448 177.793 83.2512C177.102 83.6736 176.372 83.8656 175.642 83.8656ZM135.86 71.808C142.849 71.808 149.569 73.92 154.1 75.5712C156.75 76.5312 159.438 77.6064 162.01 78.6432C165.428 80.0256 168.999 81.4848 172.57 82.6368C174.298 83.2128 176.065 83.6352 177.486 82.8288C178.791 82.0992 179.406 80.6016 179.982 78.9888L185.473 63.3216C185.934 61.9776 186.318 60.7488 185.972 59.5968C185.511 57.984 183.438 57.792 182.823 57.7536C181.172 57.7152 179.521 57.4848 177.87 57.0624C174.222 56.1408 170.612 54.9504 167.156 53.4528C165.85 52.9152 164.545 52.3776 163.316 51.84L161.242 50.9568C154.791 48.2304 147.265 45.312 139.662 45.8496C138.356 45.9264 136.897 46.1568 135.822 47.04C134.554 48.1152 134.17 49.9584 133.863 51.7248C132.942 57.4848 132.25 63.36 131.713 69.1584C131.636 69.9264 131.636 70.6176 132.02 71.1168C132.558 71.808 133.556 71.8464 134.67 71.808C135.054 71.808 135.476 71.808 135.86 71.808Z" fill="white"/>
<path d="M169.882 80.1408L169.69 80.064C160.935 75.84 150.99 71.04 140.583 70.6944H140.468L140.43 70.5792C139.162 68.1984 136.782 66.5856 134.094 66.3552L133.902 66.3168L136.129 52.1088H136.282C138.241 52.0704 140.046 50.9568 140.967 49.2288C141.159 48.9216 141.274 48.5376 141.313 48.1536C141.313 48.0768 141.313 48 141.274 47.8848C141.198 47.6544 141.198 47.424 141.313 47.1936C141.62 46.7712 142.58 46.9248 143.617 47.1168C143.809 47.1552 143.962 47.1936 144.039 47.1936C146.228 47.424 148.378 47.808 150.49 48.3072C154.638 49.2672 158.67 50.7264 162.51 52.608C163.585 53.1456 164.698 53.7216 165.735 54.2976C167.425 55.2192 169.191 56.1792 170.996 56.9472C174.414 58.4064 177.409 59.0208 180.174 58.7136H180.366V58.9056C180.481 60.864 181.671 62.592 183.438 63.3984L183.591 63.4752L183.553 63.6288C181.978 68.352 180.174 72.96 178.062 77.4528L177.985 77.6448L177.793 77.5296C175.258 75.9168 171.956 76.6848 170.343 79.1808C170.19 79.4112 170.074 79.6416 169.959 79.9104L169.882 80.1408ZM140.698 70.272C151.105 70.656 160.974 75.3792 169.69 79.6032C171.034 76.7232 174.49 75.4944 177.37 76.8768C177.524 76.9536 177.678 77.0304 177.831 77.1072C179.866 72.7296 181.633 68.2368 183.169 63.6672C181.441 62.784 180.25 61.056 180.058 59.136C177.294 59.3664 174.298 58.752 170.881 57.2928C169.076 56.5248 167.31 55.5648 165.582 54.6432C164.545 54.0672 163.47 53.4912 162.356 52.9536C156.596 50.112 150.414 48.2688 144.001 47.5392C143.886 47.5392 143.732 47.5008 143.54 47.4624C143.002 47.3856 141.812 47.1552 141.582 47.424C141.582 47.5392 141.582 47.6928 141.62 47.808C141.658 47.9232 141.658 48.0384 141.658 48.1536C141.62 48.576 141.466 48.9984 141.274 49.344C140.314 51.1488 138.471 52.3392 136.436 52.4544L134.324 65.9328C137.012 66.2784 139.393 67.8912 140.698 70.272Z" fill="white"/>
<path d="M155.674 56.2944C152.756 57.7536 150.798 61.0176 151.066 64.2816C151.45 68.5056 155.175 71.6544 159.399 71.3088C162.356 71.04 164.929 69.12 165.966 66.3168C167.54 62.0544 164.545 56.2944 159.937 55.6032C158.478 55.3728 156.98 55.6032 155.674 56.2944Z" fill="white"/>
<path d="M156.02 56.9088C153.37 58.2528 151.566 61.2096 151.834 64.1664C152.18 68.0064 155.559 70.8864 159.399 70.5408C162.126 70.3104 164.43 68.544 165.39 65.9712C166.81 62.0928 164.084 56.8704 159.898 56.2176C158.554 56.064 157.21 56.2944 156.02 56.9088Z" fill="white"/>
<path d="M158.708 70.7712C158.401 70.7712 158.132 70.7712 157.825 70.7328C154.522 70.1952 151.988 67.5456 151.604 64.2048C151.335 61.2096 153.102 58.1376 155.905 56.7552C157.134 56.1408 158.554 55.9104 159.898 56.1024C161.857 56.4096 163.623 57.6768 164.775 59.6352C166.004 61.7088 166.273 64.128 165.543 66.0864C164.43 68.8896 161.742 70.7328 158.708 70.7712ZM156.097 57.0624C153.447 58.4064 151.834 61.1712 152.026 64.128C152.334 67.8912 155.636 70.656 159.399 70.3488C162.049 70.1184 164.276 68.3904 165.198 65.9328C165.889 64.0512 165.62 61.7472 164.468 59.7888C163.393 57.9456 161.703 56.7168 159.86 56.4096C158.554 56.256 157.249 56.4864 156.097 57.0624Z" fill="white"/>
<path d="M157.018 66.9696C156.02 66.4704 155.406 65.4336 155.444 64.32C155.482 64.0128 155.751 63.744 156.058 63.7824C156.366 63.8208 156.634 64.0896 156.596 64.3968C156.558 65.0496 157.095 65.664 157.633 65.9712C158.017 66.2016 158.516 66.3168 158.977 66.2016C159.361 66.1248 159.668 65.8176 159.745 65.472C159.822 64.9344 159.284 64.4352 158.977 64.1664C158.862 64.0512 158.746 63.9744 158.593 63.8592C158.055 63.5136 157.594 63.0528 157.249 62.5536C156.558 61.2864 157.057 59.712 158.286 59.0592C159.553 58.368 161.127 58.8672 161.78 60.096C161.818 60.2112 161.895 60.288 161.934 60.4032C162.049 60.7104 161.895 61.0176 161.588 61.1328C161.281 61.248 160.974 61.0944 160.858 60.7872C160.551 60.0576 159.706 59.6736 158.977 59.9808C158.247 60.288 157.863 61.1328 158.17 61.8624C158.17 61.9008 158.209 61.9392 158.209 61.9776C158.478 62.3616 158.823 62.7072 159.207 62.976C159.361 63.0912 159.476 63.168 159.63 63.2832C160.513 64.0128 160.935 64.8192 160.82 65.5872C160.666 66.432 160.052 67.1232 159.207 67.3152C158.478 67.5072 157.71 67.392 157.018 66.9696Z" fill="white"/>
<path d="M157.326 68.8512C157.095 68.736 157.018 68.4672 157.057 68.2368C157.825 64.7808 158.785 61.4016 160.052 58.0992C160.206 57.8304 160.513 57.7152 160.82 57.8304C161.05 57.9456 161.204 58.2144 161.127 58.4832C159.898 61.7472 158.938 65.0496 158.209 68.4288C158.132 68.736 157.825 68.928 157.518 68.8896C157.441 68.8896 157.402 68.8896 157.326 68.8512Z" fill="white"/>
<path d="M168.999 64.5504C168.346 65.2416 168.078 66.24 168.27 67.1616C168.423 68.1984 169.114 69.1968 170.113 69.4656C170.996 69.6576 171.879 69.3504 172.494 68.6976C173.108 68.0448 173.377 67.1616 173.3 66.3168C173.07 64.2816 170.65 62.9376 168.999 64.5504Z" fill="white"/>
<path d="M144.078 58.2144C143.271 59.2896 143.31 61.0176 144.385 61.824C144.884 62.1696 145.498 62.3616 146.113 62.2848C147.38 62.2464 148.532 61.44 148.993 60.2496C150.106 56.8704 145.882 55.8336 144.078 58.2144Z" fill="white"/>
<path d="M152.948 52.7232C146.228 49.3824 139.086 46.2336 131.559 46.272C130.138 46.272 128.641 46.4256 127.489 47.3088C126.03 48.384 125.53 50.304 125.146 52.032C123.879 57.7536 122.804 63.5136 121.959 69.312C121.844 70.0416 121.767 70.8864 122.151 71.5008C122.727 72.384 123.956 72.4224 124.993 72.4608C131.598 72.6144 137.972 74.7264 144.039 77.3376C150.106 79.9488 155.905 83.0976 162.049 85.5552C163.7 86.208 165.582 86.8224 167.194 86.0544C168.654 85.3632 169.422 83.712 170.036 82.2144C172.186 77.1072 174.337 72 176.449 66.8928C176.948 65.664 177.486 64.32 177.217 63.0144C176.871 61.5168 175.335 60.9024 173.953 60.7872C172.302 60.6336 170.689 60.288 169.114 59.8272C165.543 58.7136 162.049 57.2928 158.708 55.6032C156.788 54.6816 154.868 53.6832 152.948 52.7232Z" fill="#D8DB2F"/>
<path d="M159.591 82.56C159.553 82.56 159.514 82.56 159.514 82.5216C151.028 77.76 141.39 72.384 131.022 71.424C130.945 71.424 130.906 71.3856 130.868 71.3088C129.754 68.8512 127.489 67.1232 124.801 66.7008C124.686 66.7008 124.609 66.5856 124.647 66.4704L127.642 52.7616C127.642 52.6848 127.758 52.608 127.834 52.608C129.793 52.6848 131.636 51.6864 132.673 49.9968C132.865 49.6896 133.018 49.344 133.095 48.96C133.095 48.8832 133.095 48.8064 133.095 48.6912C133.018 48.4608 133.057 48.2304 133.172 48C133.518 47.616 134.478 47.808 135.476 48.0384C135.668 48.0768 135.822 48.1152 135.898 48.1536C138.049 48.5376 140.199 49.0368 142.273 49.6512C146.343 50.88 150.298 52.5696 153.985 54.6816C155.022 55.296 156.097 55.9488 157.095 56.5632C158.746 57.5616 160.436 58.6368 162.202 59.52C165.505 61.2096 168.5 61.9776 171.226 61.8624C171.265 61.8624 171.342 61.8624 171.38 61.9008C171.418 61.9392 171.418 61.9776 171.418 62.0544C171.418 64.0128 172.494 65.8176 174.222 66.7392C174.298 66.7776 174.337 66.8928 174.298 66.9696C172.455 71.5776 170.343 76.0704 168.001 80.448C167.962 80.4864 167.924 80.5248 167.886 80.5248C167.847 80.5248 167.77 80.5248 167.732 80.4864C165.351 78.72 161.972 79.2576 160.206 81.6768C160.052 81.9072 159.898 82.176 159.745 82.4064C159.706 82.4448 159.668 82.4832 159.63 82.4832C159.63 82.56 159.63 82.56 159.591 82.56ZM131.175 71.04C141.543 72.0384 151.105 77.376 159.553 82.0992C161.089 79.296 164.622 78.2976 167.425 79.8336C167.578 79.9104 167.694 79.9872 167.809 80.064C170.113 75.84 172.148 71.4624 173.914 66.9696C172.225 65.9712 171.15 64.2048 171.073 62.208C168.308 62.2848 165.351 61.4784 162.049 59.8272C160.282 58.944 158.593 57.8688 156.942 56.8704C155.943 56.256 154.868 55.6032 153.831 54.9888C148.263 51.8016 142.158 49.6128 135.86 48.4992C135.745 48.4992 135.591 48.4224 135.399 48.384C134.862 48.2688 133.671 47.9616 133.441 48.2304C133.402 48.3456 133.402 48.4992 133.441 48.6144C133.441 48.7296 133.441 48.8448 133.441 48.96C133.364 49.3824 133.21 49.7664 132.98 50.1504C131.905 51.8784 130.023 52.9536 127.95 52.9536L125.031 66.2784C127.719 66.816 129.985 68.5824 131.175 71.04Z" fill="#133041"/>
<path d="M149.415 73.4208C148.954 73.4208 148.455 73.3824 147.994 73.2672C144.385 72.4608 141.735 69.3504 141.543 65.6256C141.466 62.2848 143.617 59.0208 146.804 57.6768C148.225 57.0624 149.761 56.9088 151.258 57.1776C153.409 57.6384 155.29 59.1744 156.404 61.44C157.594 63.8208 157.748 66.5088 156.826 68.6592C155.636 71.5392 152.526 73.4208 149.415 73.4208ZM149.838 57.6384C148.878 57.6384 147.918 57.8304 147.073 58.2144C144.116 59.4816 142.081 62.5152 142.158 65.6256C142.234 69.7344 145.652 72.96 149.722 72.8832C152.602 72.8064 155.214 71.0784 156.366 68.4288C157.249 66.432 157.095 63.936 155.982 61.7088C154.906 59.6352 153.178 58.176 151.22 57.7536C150.759 57.6768 150.298 57.6384 149.838 57.6384Z" fill="#133041"/>
<path d="M147.265 58.5984C144.538 59.7504 142.58 62.6304 142.657 65.5872C142.734 69.4656 145.959 72.5376 149.838 72.4224C152.564 72.3456 155.022 70.7328 156.097 68.2368C157.748 64.4736 155.367 59.0592 151.22 58.176C149.876 57.9072 148.494 58.0608 147.265 58.5984Z" fill="#D8DB2F"/>
<path d="M147.649 68.736C146.689 68.16 146.151 67.1232 146.228 66.0096C146.266 65.7024 146.574 65.472 146.881 65.5104C147.188 65.5488 147.418 65.856 147.38 66.1632C147.303 66.816 147.764 67.4688 148.302 67.8144C148.686 68.0832 149.146 68.1984 149.607 68.16C149.991 68.0832 150.298 67.8144 150.414 67.4688C150.49 66.9312 150.03 66.3936 149.722 66.1248L149.377 65.8176C148.878 65.4336 148.455 64.9728 148.148 64.3968C147.649 63.0528 148.302 61.5552 149.646 61.056C150.99 60.5568 152.487 61.2096 152.986 62.5536C153.063 62.8608 152.91 63.168 152.602 63.2448C152.295 63.3216 151.988 63.168 151.911 62.8608C151.642 62.0928 150.836 61.6704 150.068 61.9392C149.3 62.208 148.878 63.0144 149.146 63.7824C149.146 63.8208 149.185 63.8592 149.185 63.8976C149.415 64.32 149.761 64.6656 150.145 64.9344L150.529 65.28C151.374 66.048 151.719 66.8544 151.566 67.6608C151.374 68.5056 150.682 69.12 149.838 69.2736C149.108 69.3888 148.34 69.1968 147.687 68.7744L147.649 68.736Z" fill="#133041"/>
<path d="M147.841 70.6176C147.649 70.464 147.534 70.2336 147.61 70.0032C148.57 66.624 149.761 63.2832 151.22 60.096C151.335 59.8272 151.681 59.6736 151.988 59.7888C152.257 59.904 152.41 60.2496 152.295 60.5568C150.874 63.7056 149.722 66.9696 148.762 70.3104C148.686 70.6176 148.378 70.7712 148.071 70.6944C147.956 70.656 147.918 70.656 147.841 70.6176Z" fill="#133041"/>
<path d="M161.204 72.384C160.935 72.384 160.705 72.3456 160.474 72.2688C159.322 71.8848 158.67 70.656 158.593 69.6192C158.478 68.5824 158.823 67.5456 159.591 66.7776C160.359 66.0864 161.434 65.8944 162.394 66.3168C163.47 66.7776 164.199 67.8144 164.238 69.0048C164.276 69.9648 163.892 70.9248 163.201 71.5776C162.625 72.1152 161.934 72.384 161.204 72.384ZM159.937 67.2384C159.322 67.8528 159.015 68.6976 159.13 69.5808C159.207 70.4256 159.706 71.424 160.628 71.7312C161.396 71.9232 162.202 71.7312 162.74 71.1936C163.316 70.656 163.623 69.888 163.585 69.0816C163.546 68.1216 162.97 67.2768 162.087 66.8928C161.396 66.5472 160.513 66.7008 159.937 67.2384Z" fill="#133041"/>
<path d="M137.05 63.6672C136.321 63.6672 135.668 63.4368 135.13 63.0144C134.631 62.592 134.324 61.9392 134.286 61.2864C134.209 60.4416 134.478 59.6352 135.015 59.0208C136.09 57.7536 137.934 57.4464 139.393 58.2528C140.545 58.944 140.852 60.2112 140.276 61.632C139.7 62.8992 138.433 63.6672 137.05 63.6672ZM135.476 59.3664C135.054 59.904 134.823 60.5568 134.9 61.248C134.938 61.7472 135.169 62.2464 135.553 62.592C135.975 62.9376 136.551 63.1296 137.089 63.0912C138.241 63.1296 139.316 62.4768 139.815 61.4016C140.276 60.2496 140.046 59.2512 139.162 58.7136C137.895 58.0224 136.359 58.3296 135.476 59.3664Z" fill="#133041"/>
<path d="M123.418 19.8912C119.617 22.08 117.198 26.5728 117.812 30.912C118.465 35.52 122.574 39.3984 127.182 39.744C131.79 40.0896 136.474 36.9408 137.895 32.5248C139.7 26.7264 135.284 19.2384 129.063 18.624C127.105 18.4704 125.108 18.9312 123.418 19.8912Z" fill="white"/>
<path d="M126.836 39.8976C126.567 39.8976 126.337 39.8976 126.068 39.8592C121.306 39.4752 117.082 35.4816 116.43 30.7584C115.815 26.3808 118.158 21.7344 122.151 19.4304C123.918 18.3936 125.953 17.9712 127.988 18.1248C130.868 18.432 133.594 20.16 135.438 22.9632C137.396 25.92 138.01 29.4528 137.089 32.4096C135.706 36.7488 131.329 39.8976 126.836 39.8976ZM127.105 18.6624C125.454 18.6624 123.879 19.1232 122.458 19.9296C118.657 22.08 116.43 26.496 117.006 30.6816C117.62 35.136 121.652 38.9376 126.145 39.2832C130.638 39.6288 135.207 36.5568 136.551 32.256C137.434 29.4528 136.82 26.112 134.977 23.2704C133.249 20.6208 130.676 18.9696 127.95 18.7008C127.642 18.7008 127.374 18.6624 127.105 18.6624Z" fill="white"/>
<path d="M126.913 38.8992C126.682 38.8992 126.452 38.8992 126.222 38.8608C121.882 38.5152 118.004 34.8672 117.39 30.5664C116.814 26.5728 118.964 22.3104 122.612 20.2368C124.225 19.3152 126.068 18.8928 127.95 19.0464C130.599 19.3152 133.057 20.928 134.746 23.4624C136.513 26.1504 137.089 29.376 136.244 32.1024C135.054 36.0192 131.022 38.8992 126.913 38.8992ZM122.804 20.5056L122.958 20.7744C119.502 22.7328 117.466 26.7264 118.004 30.528C118.58 34.5984 122.228 38.016 126.298 38.3616C130.369 38.7072 134.554 35.904 135.745 31.9872C136.551 29.4528 136.014 26.3808 134.324 23.8464C132.75 21.4656 130.407 19.9296 127.95 19.6992C126.222 19.5456 124.455 19.9296 122.958 20.8128L122.804 20.5056Z" fill="white"/>
<path d="M124.878 33.9072C123.457 33.1776 122.574 31.8336 122.574 30.4896C122.574 30.0672 122.919 29.7216 123.342 29.7216C123.764 29.7216 124.071 30.0672 124.071 30.4896C124.071 31.3728 124.801 32.1792 125.569 32.5248C126.106 32.832 126.759 32.9088 127.374 32.7552C127.873 32.6016 128.257 32.2176 128.334 31.68C128.372 30.9888 127.642 30.336 127.182 29.9904C126.99 29.8752 126.836 29.76 126.644 29.6064C125.914 29.184 125.3 28.6464 124.801 27.9936C123.802 26.3424 124.302 24.2304 125.914 23.1936C127.566 22.1952 129.678 22.6944 130.714 24.3072C130.791 24.4608 130.868 24.6144 130.945 24.768C131.137 25.152 131.022 25.6128 130.638 25.8048C130.254 25.9968 129.793 25.8816 129.601 25.4976C129.562 25.4592 129.562 25.3824 129.524 25.344C129.025 24.3456 127.834 23.8848 126.798 24.3456C125.838 24.9216 125.492 26.1504 126.068 27.1488C126.452 27.648 126.951 28.0704 127.489 28.3776C127.681 28.4928 127.873 28.6464 128.065 28.7616C129.294 29.6448 129.908 30.6816 129.831 31.7952C129.716 32.9472 128.91 33.9072 127.796 34.2144C126.798 34.4832 125.761 34.368 124.878 33.8688V33.9072Z" fill="#133041"/>
<path d="M125.415 36.4032C125.108 36.2496 124.954 35.9424 124.993 35.5968C125.761 30.9504 126.836 26.3424 128.257 21.8496C128.334 21.4272 128.756 21.1584 129.14 21.2352C129.524 21.312 129.831 21.7344 129.754 22.1184C129.754 22.1952 129.716 22.2336 129.716 22.272C128.334 26.688 127.22 31.2192 126.49 35.8272C126.414 36.2496 126.03 36.5184 125.607 36.48C125.569 36.48 125.492 36.4416 125.415 36.4032Z" fill="#133041"/>
<path d="M23.2712 125.53C19.4696 127.68 17.0504 132.211 17.6648 136.55C18.3176 141.158 22.4264 145.037 27.0344 145.382C31.6424 145.728 36.3272 142.579 37.7096 138.163C39.5144 132.365 35.0984 124.877 28.8776 124.262C26.9576 124.109 24.9608 124.57 23.2712 125.53Z" fill="white"/>
<path d="M26.6888 145.536C26.42 145.536 26.1896 145.536 25.9208 145.498C21.1592 145.114 16.9352 141.12 16.244 136.397C15.6296 132.019 17.972 127.373 21.9656 125.069C23.732 124.032 25.7672 123.61 27.8024 123.763C30.6824 124.07 33.4088 125.798 35.252 128.602C37.2104 131.558 37.8248 135.091 36.9032 138.048C35.5976 142.349 31.1816 145.536 26.6888 145.536ZM22.3112 125.568C18.5096 127.718 16.244 132.134 16.8584 136.32C17.4728 140.774 21.5048 144.576 25.9976 144.922C30.4904 145.267 35.06 142.195 36.404 137.894C37.2872 135.091 36.6728 131.75 34.8296 128.909C33.1016 126.259 30.5288 124.608 27.8024 124.339C25.8824 124.186 23.9624 124.608 22.3112 125.568Z" fill="white"/>
<path d="M26.804 144.538C26.5736 144.538 26.3432 144.538 26.1128 144.499C21.7736 144.154 17.8952 140.506 17.2808 136.205C16.7048 132.211 18.8552 127.949 22.5032 125.875C24.116 124.954 25.9592 124.531 27.8408 124.685C30.4904 124.954 32.948 126.566 34.6376 129.101C36.404 131.789 36.98 135.014 36.1352 137.741C34.9064 141.658 30.9128 144.538 26.804 144.538ZM27.0344 125.222C25.5368 125.222 24.0776 125.645 22.8104 126.374C19.3544 128.333 17.3192 132.326 17.8568 136.128C18.4328 140.16 22.0808 143.616 26.1512 143.962C30.2216 144.307 34.3688 141.504 35.5976 137.587C36.404 135.053 35.8664 132.019 34.1768 129.446C32.6024 127.066 30.26 125.53 27.8024 125.299C27.5336 125.261 27.2648 125.222 27.0344 125.222Z" fill="white"/>
<path d="M24.7304 139.546C23.3096 138.816 22.4264 137.472 22.4264 136.128C22.4264 135.706 22.772 135.36 23.1944 135.36C23.6168 135.36 23.9624 135.706 23.9624 136.128C23.924 137.011 24.692 137.818 25.46 138.163C25.9976 138.47 26.6504 138.547 27.2648 138.394C27.764 138.24 28.148 137.856 28.2248 137.318C28.2632 136.627 27.5336 135.974 27.0728 135.629L26.5352 135.245C25.8056 134.822 25.1912 134.246 24.692 133.594C23.6936 131.981 24.1928 129.83 25.8056 128.794C27.4184 127.795 29.5688 128.294 30.6056 129.907C30.6824 130.061 30.7976 130.214 30.836 130.368C31.028 130.752 30.9128 131.213 30.5288 131.405C30.1448 131.597 29.684 131.482 29.492 131.098C29.4536 131.059 29.4536 130.982 29.4152 130.906C28.9544 129.946 27.8024 129.523 26.804 129.984C25.844 130.445 25.4216 131.597 25.8824 132.595C25.9208 132.634 25.9208 132.672 25.9592 132.71C26.3432 133.21 26.804 133.632 27.38 133.939C27.572 134.054 27.764 134.208 27.956 134.323C29.1848 135.206 29.7992 136.243 29.7224 137.357C29.6072 138.509 28.8008 139.469 27.6872 139.776C26.6888 140.16 25.652 140.045 24.7304 139.546Z" fill="#133041"/>
<path d="M25.3064 142.042C24.9992 141.888 24.8456 141.581 24.884 141.235C25.652 136.589 26.7272 131.981 28.148 127.45C28.2248 127.027 28.6088 126.758 29.0312 126.835C29.4536 126.912 29.7224 127.296 29.6456 127.718C29.6456 127.795 29.6072 127.834 29.5688 127.91C28.1864 132.326 27.1112 136.858 26.3432 141.466C26.2664 141.888 25.8824 142.157 25.46 142.08C25.4216 142.08 25.3448 142.08 25.3064 142.042Z" fill="#133041"/>
<path d="M22.5032 81.5616C31.7576 70.7712 41.2808 59.7888 53.6456 52.8C50.42 62.8224 44.7368 71.8848 38.0936 80.0256C31.4504 88.1664 23.8088 95.424 16.1672 102.682C14.9768 103.795 12.8648 106.022 11.0216 105.254C9.5624 104.678 9.4088 102.605 9.5624 101.299C10.1 96.7296 14.0936 92.0064 16.7816 88.4736C18.6248 86.0928 20.5448 83.8272 22.5032 81.5616Z" fill="#D8DB2F"/>
<path d="M9.716 103.258C10.0232 102.835 10.4456 102.49 10.9448 102.259C11.4824 102.029 12.0584 102.182 12.404 102.682C12.7496 103.258 12.3272 103.987 11.9048 104.525C11.2136 105.408 7.8344 110.861 6.9128 109.555C5.7608 107.942 8.8712 104.256 9.716 103.258Z" fill="white"/>
<path d="M23.9624 99.6096C26.4584 97.0368 27.8792 93.6192 29.1464 90.2784C29.7224 88.7808 30.26 87.2448 31.1816 85.9392C32.1032 84.6336 33.4472 83.5584 35.06 83.328C35.828 83.1744 36.596 83.4048 37.172 83.8656C37.7096 84.4032 37.8632 85.3632 37.3256 85.9008C36.788 86.4384 35.9816 86.3232 35.2904 86.4384C33.4856 86.784 32.4104 88.5504 31.604 90.2016C29.9528 93.5808 28.6088 97.1136 26.3432 100.07C24.0776 103.027 20.6984 105.485 16.9736 105.446C14.324 105.408 13.5176 103.718 16.436 103.181C19.3928 102.605 21.7736 101.914 23.9624 99.6096Z" fill="white"/>
<path d="M49.268 63.4368C48.4232 68.928 44.6216 73.4592 40.9736 77.6832C40.0136 78.7968 38.9768 79.9488 37.5944 80.4096C35.4824 81.1008 33.2168 79.9488 31.412 78.6432C29.7992 77.4912 28.148 75.84 28.34 73.8816C28.4552 72.5376 29.4536 71.424 30.4136 70.464C33.6776 67.0464 37.0952 63.744 40.628 60.6336C42.4712 59.0208 42.8552 59.4048 44.468 60.9792C44.7752 61.2096 49.1528 64.0128 49.268 63.4368Z" fill="white"/>
<path d="M20.1224 98.9952C19.9688 99.84 19.0856 100.493 18.2408 100.608C17.3576 100.685 16.4744 100.493 15.668 100.109C14.0168 99.4176 12.596 98.304 11.5592 96.8448C11.1752 96.2304 10.7912 94.2336 12.1352 94.7712C12.9416 95.0784 13.748 96.2304 14.4776 96.7296C14.9 96.96 20.0456 99.4944 20.1224 98.9952Z" fill="white"/>
</svg>
